# xmcd CD database file
#
# Track frame offsets:
#	225
#	91414
#	169537
#	273180
#
# Disc length: 4627 seconds
#
# Revision: 0
# Processed by: cddbd v1.4PL0 Copyright (c) Steve Scherf et al.
# Submitted via: CDex 1.50Beta7
#
DISCID=28121004
DTITLE=Schlippenbach Quartet - Hunting The Snake
DYEAR=1975
DGENRE=Jazz
TTITLE0=Glen Feshie
TTITLE1=Moonbeef
TTITLE2=Hunting The Snake
TTITLE3=Wenn Wir Kehlkopfspieler Uns Unterhalten
EXTD=YEAR: 1975
EXTT0=
EXTT1=
EXTT2=
EXTT3=
PLAYORDER=
